<svg width="70" height="71" viewBox="0 0 70 71" fill="none" xmlns="http://www.w3.org/2000/svg">
<g id="Group 1">
<path id="Ellipse 770" d="M69.25 35.5C69.25 54.702 53.9058 70.25 35 70.25C16.0942 70.25 0.75 54.702 0.75 35.5C0.75 16.298 16.0942 0.75 35 0.75C53.9058 0.75 69.25 16.298 69.25 35.5Z" stroke="#D5DEE7" stroke-width="1.5"/>
<g id="Apple">
<path id="Vector" d="M44.6538 34.7462C44.7053 40.2932 49.52 42.1391 49.5734 42.1627C49.5327 42.2929 48.8041 44.7933 47.0368 47.3761C45.509 49.609 43.9234 51.8337 41.4256 51.8798C38.9713 51.925 38.1821 50.4244 35.376 50.4244C32.5709 50.4244 31.694 51.8337 29.3707 51.925C26.9597 52.0163 25.1238 49.5104 23.5833 47.2857C20.4356 42.7349 18.0301 34.4262 21.2601 28.8178C22.8647 26.0326 25.7322 24.2689 28.8446 24.2236C31.2122 24.1785 33.4469 25.8164 34.8942 25.8164C36.3406 25.8164 39.0562 23.8466 41.9111 24.1359C43.1062 24.1857 46.4609 24.6187 48.6151 27.7718C48.4415 27.8794 44.6122 30.1087 44.6538 34.7462V34.7462ZM40.0412 21.1252C41.3212 19.5758 42.1827 17.4188 41.9477 15.2727C40.1026 15.3469 37.8716 16.5022 36.5481 18.0508C35.3621 19.4221 34.3234 21.617 34.6037 23.7206C36.6602 23.8797 38.7611 22.6756 40.0412 21.1252" fill="#292D32"/>
</g>
</g>
</svg>
