<svg width="24" height="25" viewBox="0 0 24 25" fill="none" xmlns="http://www.w3.org/2000/svg">
<g id="Buy">
<g id="Iconly/Bold/Buy">
<g id="Buy_2">
<path id="Vector" d="M7.42631 19.3078C8.25567 19.3078 8.93514 20.0017 8.93514 20.8589C8.93514 21.706 8.25567 22.3999 7.42631 22.3999C6.58697 22.3999 5.9075 21.706 5.9075 20.8589C5.9075 20.0017 6.58697 19.3078 7.42631 19.3078ZM18.6676 19.3078C19.4969 19.3078 20.1764 20.0017 20.1764 20.8589C20.1764 21.706 19.4969 22.3999 18.6676 22.3999C17.8282 22.3999 17.1487 21.706 17.1487 20.8589C17.1487 20.0017 17.8282 19.3078 18.6676 19.3078ZM2.88006 2.40864L5.2632 2.775C5.60293 2.83725 5.85274 3.12198 5.88272 3.46895L6.07257 5.75489C6.10254 6.08247 6.36234 6.3274 6.68209 6.3274H20.1766C20.7861 6.3274 21.1858 6.5417 21.5855 7.01114C21.9852 7.48057 22.0551 8.15411 21.9652 8.76539L21.0159 15.4599C20.8361 16.7468 19.7569 17.6948 18.4879 17.6948H7.58639C6.25742 17.6948 5.15828 16.6549 5.04837 15.3079L4.12908 4.18331L2.62026 3.91797C2.22057 3.84654 1.94079 3.44854 2.01073 3.04034C2.08068 2.62295 2.47038 2.34639 2.88006 2.40864ZM16.8891 10.1023H14.1213C13.7016 10.1023 13.3719 10.439 13.3719 10.8676C13.3719 11.286 13.7016 11.633 14.1213 11.633H16.8891C17.3088 11.633 17.6386 11.286 17.6386 10.8676C17.6386 10.439 17.3088 10.1023 16.8891 10.1023Z" fill="#D47F40"/>
</g>
</g>
</g>
</svg>
