<svg width="16" height="16" viewBox="0 0 16 16" fill="none" xmlns="http://www.w3.org/2000/svg">
<g id="vuesax/bold/element-2">
<g id="element-2">
<path id="Vector" d="M7.33332 13.2666V2.73325C7.33332 1.73325 6.90666 1.33325 5.84666 1.33325H3.15332C2.09332 1.33325 1.66666 1.73325 1.66666 2.73325V13.2666C1.66666 14.2666 2.09332 14.6666 3.15332 14.6666H5.84666C6.90666 14.6666 7.33332 14.2666 7.33332 13.2666Z" fill="#292D32"/>
<path id="Vector_2" d="M14.3333 7.26659V2.73325C14.3333 1.73325 13.9067 1.33325 12.8467 1.33325H10.1533C9.09332 1.33325 8.66666 1.73325 8.66666 2.73325V7.26659C8.66666 8.26659 9.09332 8.66659 10.1533 8.66659H12.8467C13.9067 8.66659 14.3333 8.26659 14.3333 7.26659Z" fill="#292D32"/>
<path id="Vector_3" d="M14.3333 13.2667V11.4C14.3333 10.4 13.9067 10 12.8467 10H10.1533C9.09332 10 8.66666 10.4 8.66666 11.4V13.2667C8.66666 14.2667 9.09332 14.6667 10.1533 14.6667H12.8467C13.9067 14.6667 14.3333 14.2667 14.3333 13.2667Z" fill="#292D32"/>
</g>
</g>
</svg>
