<svg width="71" height="71" viewBox="0 0 71 71" fill="none" xmlns="http://www.w3.org/2000/svg">
<g id="Group 2">
<circle id="Ellipse 771" cx="35.5" cy="35.5" r="34.75" stroke="#D5DEE7" stroke-width="1.5"/>
<g id="Layer_x0020_1">
<path id="Vector" d="M53.8181 35.3182C53.8181 25.3043 45.6957 17.1819 35.6818 17.1819C25.6678 17.1819 17.5454 25.3043 17.5454 35.3182C17.5454 44.3687 24.1765 51.8748 32.848 53.235V40.5608H28.243V35.3182H32.848V31.3226C32.848 26.7779 35.5578 24.2664 39.6987 24.2664C41.6824 24.2664 43.7581 24.6206 43.7581 24.6206V29.0839H41.4698C39.2169 29.0839 38.5156 30.4831 38.5156 31.9177V35.3182H43.5456L42.7415 40.5608H38.5156V53.235C47.187 51.8748 53.8181 44.3723 53.8181 35.3182Z" fill="#1977F3"/>
<path id="Vector_2" d="M42.7415 40.5607L43.5456 35.3182H38.5156V31.9176C38.5156 30.483 39.217 29.0838 41.4698 29.0838H43.7581V24.6206C43.7581 24.6206 41.6824 24.2664 39.6987 24.2664C35.5578 24.2664 32.848 26.7743 32.848 31.3225V35.3182H28.243V40.5607H32.848V53.2349C33.7725 53.3802 34.7183 53.4546 35.6818 53.4546C36.6453 53.4546 37.5911 53.3766 38.5156 53.2349V40.5607H42.7415Z" fill="#FEFEFE"/>
</g>
</g>
</svg>
