<svg width="25" height="24" viewBox="0 0 25 24" fill="none" xmlns="http://www.w3.org/2000/svg">
<g id="Heart">
<g id="Iconly/Bold/Heart">
<g id="Heart_2">
<path id="Vector" d="M8.7798 2.5007C9.4098 2.51986 10.0198 2.62986 10.6108 2.83086H10.6698C10.7098 2.84986 10.7398 2.87086 10.7598 2.88986C10.9808 2.96086 11.1898 3.04086 11.3898 3.15086L11.7698 3.32086C11.9198 3.40086 12.0998 3.54986 12.1998 3.61086C12.2998 3.66986 12.4098 3.73086 12.4998 3.79986C13.6108 2.95086 14.9598 2.49086 16.3498 2.5007C16.9808 2.5007 17.6108 2.58986 18.2098 2.79086C21.9008 3.99086 23.2308 8.04086 22.1198 11.5809C21.4898 13.3899 20.4598 15.0409 19.1108 16.3899C17.1798 18.2599 15.0608 19.9199 12.7798 21.3499L12.5298 21.5009L12.2698 21.3399C9.9808 19.9199 7.8498 18.2599 5.9008 16.3799C4.5608 15.0309 3.5298 13.3899 2.8898 11.5809C1.7598 8.04086 3.0898 3.99086 6.8208 2.76986C7.1108 2.66986 7.4098 2.59986 7.7098 2.56086H7.8298C8.1108 2.51986 8.3898 2.5007 8.6698 2.5007H8.7798ZM17.6898 5.66086C17.2798 5.51986 16.8298 5.74086 16.6798 6.16086C16.5398 6.58086 16.7598 7.04086 17.1798 7.18986C17.8208 7.42986 18.2498 8.06086 18.2498 8.75986V8.79086C18.2308 9.01986 18.2998 9.24086 18.4398 9.41086C18.5798 9.58086 18.7898 9.67986 19.0098 9.70086C19.4198 9.68986 19.7698 9.36086 19.7998 8.93986V8.82086C19.8298 7.41986 18.9808 6.15086 17.6898 5.66086Z" fill="#292D32"/>
</g>
</g>
</g>
</svg>
