<svg width="31" height="32" viewBox="0 0 31 32" fill="none" xmlns="http://www.w3.org/2000/svg">
<g id="Google">
<path id="Vector" d="M30.5908 15.9801C30.5908 14.9528 30.4998 13.9776 30.3437 13.0283H15.6498V18.8929H24.063C23.6859 20.8174 22.5806 22.4429 20.9422 23.5482V27.4492H25.9616C28.9004 24.7315 30.5908 20.7264 30.5908 15.9801Z" fill="#4285F4"/>
<path id="Vector_2" d="M15.6498 31.2332C19.863 31.2332 23.3869 29.8288 25.9616 27.4492L20.9423 23.5481C19.5379 24.4844 17.7564 25.0565 15.6498 25.0565C11.5797 25.0565 8.13381 22.3128 6.89848 18.6068H1.72308V22.6249C4.28477 27.7223 9.55119 31.2332 15.6498 31.2332Z" fill="#34A853"/>
<path id="Vector_3" d="M6.8985 18.6069C6.57341 17.6706 6.40437 16.6693 6.40437 15.6291C6.40437 14.5888 6.58642 13.5875 6.8985 12.6513V8.63318H1.72311C0.656818 10.7397 0.0456543 13.1064 0.0456543 15.6291C0.0456543 18.1517 0.656818 20.5184 1.72311 22.6249L6.8985 18.6069Z" fill="#FBBC05"/>
<path id="Vector_4" d="M15.6498 6.20157C17.9515 6.20157 20.006 6.99478 21.6314 8.5422L26.0786 4.095C23.3869 1.57232 19.863 0.0249023 15.6498 0.0249023C9.55119 0.0249023 4.28477 3.53585 1.72308 8.63322L6.89848 12.6513C8.13381 8.94531 11.5797 6.20157 15.6498 6.20157Z" fill="#EA4335"/>
</g>
</svg>
