<svg width="17" height="18" viewBox="0 0 17 18" fill="none" xmlns="http://www.w3.org/2000/svg">
<g id="Star">
<g id="Iconly/Bold/Star">
<g id="Star_2">
<path id="Vector" d="M12.6923 10.6434C12.5088 10.8212 12.4245 11.0783 12.4663 11.3305L13.096 14.8155C13.1492 15.1108 13.0245 15.4097 12.7773 15.5805C12.535 15.7575 12.2127 15.7788 11.9485 15.6371L8.81132 14.0009C8.70224 13.9428 8.58112 13.9116 8.45716 13.9081H8.2652C8.19862 13.918 8.13345 13.9392 8.07395 13.9718L4.93603 15.6159C4.78091 15.6938 4.60524 15.7214 4.43312 15.6938C4.01378 15.6145 3.73399 15.215 3.8027 14.7935L4.43312 11.3085C4.47491 11.0542 4.39062 10.7957 4.20716 10.615L1.64937 8.13587C1.43545 7.92833 1.36107 7.61667 1.45882 7.33546C1.55374 7.05496 1.79599 6.85025 2.08853 6.80421L5.60895 6.2935C5.8767 6.26587 6.11187 6.10296 6.23228 5.86212L7.78353 2.68171C7.82037 2.61087 7.86783 2.54571 7.9252 2.49046L7.98895 2.44087C8.02224 2.40404 8.06049 2.37358 8.10299 2.34879L8.1802 2.32046L8.30062 2.27087H8.59882C8.86516 2.2985 9.09962 2.45787 9.22216 2.69587L10.794 5.86212C10.9073 6.09375 11.1276 6.25454 11.3819 6.2935L14.9023 6.80421C15.1998 6.84671 15.4484 7.05212 15.5469 7.33546C15.6397 7.6195 15.5596 7.93117 15.3415 8.13587L12.6923 10.6434Z" fill="currentColor"/>
</g>
</g>
</g>
</svg>
